<svg width="250" height="101" viewBox="0 0 250 101" fill="none" xmlns="http://www.w3.org/2000/svg">
<g clip-path="url(#clip0_11170_12239)">
<path d="M0 93.3043H48.6082V100.263H0V93.3043Z" fill="black"/>
<path d="M0 79.9575H48.6082V86.9403H0V79.9575Z" fill="black"/>
<path d="M13.867 66.6353H34.7168V73.6183H13.867V66.6353Z" fill="black"/>
<path d="M13.867 53.3132H34.7168V60.2962H13.867V53.3132Z" fill="black"/>
<path d="M13.867 39.991H34.7168V46.974H13.867V39.991Z" fill="black"/>
<path d="M13.867 26.6442H34.7168V33.6272H13.867V26.6442Z" fill="black"/>
<path d="M48.6082 13.322H0V20.305H48.6082V13.322Z" fill="black"/>
<path d="M48.6082 0H0V6.983H48.6082V0Z" fill="black"/>
<path d="M55.5417 86.9403H130.299C131.562 84.786 132.503 82.4335 133.072 79.9573H55.5417V86.9403Z" fill="black"/>
<path d="M124.48 53.3132H69.4335V60.2962H130.299C128.714 57.6217 126.758 55.2695 124.48 53.3132Z" fill="black"/>
<path d="M69.4335 39.991V46.974H124.48C126.808 45.0178 128.764 42.6653 130.299 39.991H69.4335Z" fill="black"/>
<path d="M130.299 13.322H55.5417V20.305H133.072C132.429 17.8288 131.488 15.4765 130.299 13.322Z" fill="black"/>
<path d="M107.32 0H55.5417V6.983H125.173C120.518 2.67425 114.204 0 107.32 0Z" fill="black"/>
<path d="M90.2585 26.6442H69.4335V33.6272H90.2585V26.6442Z" fill="black"/>
<path d="M111.108 33.6272H132.899C133.518 31.3987 133.84 29.0462 133.84 26.6442H111.108V33.6272Z" fill="black"/>
<path d="M69.4335 66.6353H90.2585V73.6183H69.4335V66.6353Z" fill="black"/>
<path d="M111.108 66.6353V73.6183H133.84C133.84 71.2163 133.518 68.864 132.899 66.6353H111.108Z" fill="black"/>
<path d="M55.5417 100.213L107.32 100.287C114.253 100.287 120.518 97.613 125.198 93.3043H55.5417V100.213Z" fill="black"/>
<path d="M138.892 93.3043H173.608V100.263H138.892V93.3043Z" fill="black"/>
<path d="M138.892 79.9575H173.608V86.9403H138.892V79.9575Z" fill="black"/>
<path d="M152.758 66.6353H173.608V73.6183H152.758V66.6353Z" fill="black"/>
<path d="M152.758 53.3132H173.608V60.2962H152.758V53.3132Z" fill="black"/>
<path d="M183.266 13.322H138.892V20.305H185.667L183.266 13.322Z" fill="black"/>
<path d="M178.66 0H138.892V6.983H181.062L178.66 0Z" fill="black"/>
<path d="M215.258 93.3043H250V100.263H215.258V93.3043Z" fill="black"/>
<path d="M215.258 79.9575H250V86.9403H215.258V79.9575Z" fill="black"/>
<path d="M215.258 66.6353H236.108V73.6183H215.258V66.6353Z" fill="black"/>
<path d="M215.258 53.3132H236.108V60.2962H215.258V53.3132Z" fill="black"/>
<path d="M215.258 46.974H236.108V39.991H215.258H196.39L194.433 45.637L192.477 39.991H173.608H152.758V46.974H173.608V40.5605L175.812 46.974H213.055L215.258 40.5605V46.974Z" fill="black"/>
<path d="M236.108 26.6442H200.995L198.594 33.6272H236.108V26.6442Z" fill="black"/>
<path d="M210.232 0L207.83 6.983H250V0H210.232Z" fill="black"/>
<path d="M194.434 100.213L196.835 93.3043H192.031L194.434 100.213Z" fill="black"/>
<path d="M189.828 86.9403H199.039L201.516 79.9575H187.376L189.828 86.9403Z" fill="black"/>
<path d="M185.147 73.6183H203.719L206.171 66.6353H182.696L185.147 73.6183Z" fill="black"/>
<path d="M180.492 60.2962H208.399L210.777 53.3132H178.09L180.492 60.2962Z" fill="black"/>
<path d="M152.758 33.6272H190.273L187.871 26.6442H152.758V33.6272Z" fill="black"/>
<path d="M203.224 20.305H250V13.322H205.601L203.224 20.305Z" fill="black"/>
</g>
<defs>
<clipPath id="clip0_11170_12239">
<rect width="250" height="100.287" fill="white"/>
</clipPath>
</defs>
</svg>
